Coordinates
version=1
nRows=17
nColumns=40
inDegrees=yes

Units are S.I. units (second, meters, Newtons, ...)
If the header above contains a line with 'inDegrees', this indicates whether rotational values are in degrees (yes) or radians (no).

endheader
time	pelvis_tilt	pelvis_list	pelvis_rotation	pelvis_tx	pelvis_ty	pelvis_tz	hip_flexion_r	hip_adduction_r	hip_rotation_r	knee_angle_r	knee_angle_r_beta	ankle_angle_r	subtalar_angle_r	mtp_angle_r	hip_flexion_l	hip_adduction_l	hip_rotation_l	knee_angle_l	knee_angle_l_beta	ankle_angle_l	subtalar_angle_l	mtp_angle_l	lumbar_extension	lumbar_bending	lumbar_rotation	arm_flex_r	arm_add_r	arm_rot_r	elbow_flex_r	pro_sup_r	wrist_flex_r	wrist_dev_r	arm_flex_l	arm_add_l	arm_rot_l	elbow_flex_l	pro_sup_l	wrist_flex_l	wrist_dev_l
      3.70000000	      2.75364458	     -7.12883109	     -5.36583984	     -0.25938933	      0.96463693	     -0.99751231	     -0.99761622	     -5.06634264	     -2.74454967	     68.72668793	      1.19950699	    -17.91981815	      0.00000000	      0.00000000	     21.00344466	     -8.73227905	    -11.90679340	     56.23343277	      0.98145855	     17.12241045	      0.00000000	      0.00000000	    -10.76807009	     -0.32603526	      9.91511778	     89.86920882	    -19.76450165	     36.59670188	     36.57965457	     84.91135551	      0.00000000	      0.00000000	     89.89107123	    -18.46633891	     48.41580052	     42.34740277	     86.56950190	      0.00000000	      0.00000000
      3.70500000	      2.75204623	     -7.08653358	     -5.37883344	     -0.25949668	      0.96381554	     -0.99743803	     -1.01611687	     -5.11226486	     -2.72245623	     68.76020216	      1.20009192	    -17.92356848	      0.00000000	      0.00000000	     21.09882967	     -8.69627680	    -11.88404227	     56.41893812	      0.98469623	     17.28998500	      0.00000000	      0.00000000	    -10.77717443	     -0.37833780	      9.92807375	     89.86955551	    -19.77226734	     36.51558466	     36.58343355	     85.15581804	      0.00000000	      0.00000000	     89.89164889	    -18.41596066	     48.36750040	     42.33545149	     86.51655340	      0.00000000	      0.00000000
      3.71000000	      2.68249521	     -7.08958412	     -5.37350392	     -0.25970443	      0.96298308	     -0.99733348	     -0.94755317	     -5.10688175	     -2.73398257	     68.81940778	      1.20112526	    -17.95709729	      0.00000000	      0.00000000	     21.30148755	     -8.71027264	    -11.81202400	     56.63611403	      0.98848667	     17.38425339	      0.00000000	      0.00000000	    -10.73291337	     -0.37717609	      9.89472364	     89.87066292	    -19.72033339	     36.42654697	     36.54238263	     84.92545658	      0.00000000	      0.00000000	     89.89155956	    -18.42471271	     48.30183534	     42.39993106	     86.61598120	      0.00000000	      0.00000000
      3.71500000	      2.65881822	     -7.13278409	     -5.40462354	     -0.25978860	      0.96216435	     -0.99717403	     -0.93831775	     -5.03809911	     -2.67572531	     68.89126635	      1.20237942	    -17.92868975	      0.00000000	      0.00000000	     21.43721292	     -8.78106361	    -11.76825136	     56.86924866	      0.99255563	     17.51584830	      0.00000000	      0.00000000	    -10.71797888	     -0.34314303	      9.99709809	     89.87031922	    -19.82514895	     36.48680171	     36.59859087	     85.09410288	      0.00000000	      0.00000000	     89.89300004	    -18.29475337	     48.26064704	     42.34470580	     86.48159593	      0.00000000	      0.00000000
      3.72000000	      2.54270983	     -7.16891217	     -5.41478447	     -0.25999188	      0.96126505	     -0.99703282	     -0.83024375	     -4.95732760	     -2.62142582	     68.90169390	      1.20256142	    -18.22185402	      0.00000000	      0.00000000	     21.69172314	     -8.84643892	    -11.69764550	     57.10498517	      0.99667001	     17.60287649	      0.00000000	      0.00000000	    -10.62308912	     -0.29395117	      9.95811488	     89.87108792	    -19.74898030	     36.38103900	     36.56895630	     85.26547987	      0.00000000	      0.00000000	     89.89265793	    -18.34163832	     48.23954643	     42.41256320	     86.41746303	      0.00000000	      0.00000000
      3.72500000	      2.53167432	     -7.13220058	     -5.45769428	     -0.26009887	      0.96040701	     -0.99687905	     -0.81963881	     -5.01374463	     -2.58899884	     69.01510213	      1.20454077	    -18.13280050	      0.00000000	      0.00000000	     21.80163383	     -8.83481270	    -11.69984350	     57.31035164	      1.00025433	     17.73726737	      0.00000000	      0.00000000	    -10.62168184	     -0.33934602	      9.96695967	     89.87337821	    -19.72412109	     36.42541411	     36.60250327	     85.05878591	      0.00000000	      0.00000000	     89.89340186	    -18.37934196	     48.28528893	     42.47302422	     86.36000911	      0.00000000	      0.00000000
      3.73000000	      2.58640352	     -7.13463154	     -5.47535256	     -0.26021314	      0.95984836	     -0.99683608	     -0.88958675	     -5.00861928	     -2.52272000	     69.06860839	      1.20547463	    -18.08840523	      0.00000000	      0.00000000	     21.83338064	     -8.83586795	    -11.67168405	     57.47768816	      1.00317490	     17.81132597	      0.00000000	      0.00000000	    -10.71082319	     -0.36232940	     10.05286558	     89.87257151	    -19.80936174	     36.30299334	     36.67103347	     84.92727533	      0.00000000	      0.00000000	     89.89377094	    -18.20232815	     48.06430484	     42.35368086	     86.57110018	      0.00000000	      0.00000000
      3.73500000	      2.58484464	     -7.11091744	     -5.52499227	     -0.26031794	      0.95910975	     -0.99660988	     -0.89122434	     -5.01295463	     -2.43562894	     69.11664188	      1.20631297	    -18.12339834	      0.00000000	      0.00000000	     21.91161098	     -8.85176547	    -11.70255983	     57.64926409	      1.00616947	     17.92153235	      0.00000000	      0.00000000	    -10.72530090	     -0.40313754	     10.06709827	     89.87186109	    -19.76567245	     36.28023638	     36.67270699	     84.84938501	      0.00000000	      0.00000000	     89.89476846	    -18.20828863	     47.96363792	     42.38548478	     86.56176310	      0.00000000	      0.00000000
      3.74000000	      2.49114330	     -7.13161522	     -5.54065908	     -0.26054147	      0.95817576	     -0.99652298	     -0.78885030	     -4.98375424	     -2.41524956	     69.19334543	      1.20765170	    -18.14352767	      0.00000000	      0.00000000	     22.15833940	     -8.89683674	    -11.64588615	     57.91339808	      1.01077948	     18.01771354	      0.00000000	      0.00000000	    -10.64841988	     -0.37993523	     10.14310739	     89.87388227	    -19.88451066	     36.36703846	     36.72453894	     84.64593487	      0.00000000	      0.00000000	     89.89418402	    -18.07536059	     47.88381715	     42.33965599	     86.52109641	      0.00000000	      0.00000000
      3.74500000	      2.54526113	     -7.11873669	     -5.52017816	     -0.26070689	      0.95750358	     -0.99652816	     -0.87133502	     -4.99052859	     -2.37622811	     69.23025024	      1.20829581	    -18.21069451	      0.00000000	      0.00000000	     22.21308917	     -8.86205008	    -11.55575840	     58.10087419	      1.01405155	     18.13081742	      0.00000000	      0.00000000	    -10.73692658	     -0.38603846	     10.08969276	     89.87451239	    -19.77508823	     36.08103784	     36.73142629	     85.09762480	      0.00000000	      0.00000000	     89.89509807	    -18.13142210	     47.88329379	     42.41171780	     86.47193274	      0.00000000	      0.00000000
      3.75000000	      2.52390408	     -7.12791997	     -5.50642067	     -0.26080084	      0.95674300	     -0.99647313	     -0.88352312	     -4.98162263	     -2.37529432	     69.22925367	      1.20827842	    -18.43661303	      0.00000000	      0.00000000	     22.35092501	     -8.86746210	    -11.47816028	     58.30631748	      1.01763721	     18.20116276	      0.00000000	      0.00000000	    -10.72805914	     -0.37718746	     10.14278129	     89.87456084	    -19.89793926	     36.19411912	     36.83345553	     84.84518208	      0.00000000	      0.00000000	     89.89548175	    -17.99143403	     47.77544273	     42.30395510	     86.49409989	      0.00000000	      0.00000000
      3.75500000	      2.47600646	     -7.13878543	     -5.50764650	     -0.26096093	      0.95583159	     -0.99634412	     -0.83722675	     -4.95643391	     -2.34418715	     69.31298784	      1.20973985	    -18.39356787	      0.00000000	      0.00000000	     22.52510118	     -8.88883690	    -11.41054933	     58.52319496	      1.02142244	     18.35216708	      0.00000000	      0.00000000	    -10.70820570	     -0.35355515	     10.07749032	     89.87510716	    -19.74239382	     35.95611464	     36.75149350	     85.00901328	      0.00000000	      0.00000000	     89.89599111	    -18.09545386	     47.77652362	     42.40937611	     86.51149123	      0.00000000	      0.00000000
      3.76000000	      2.45835983	     -7.11851148	     -5.52624108	     -0.26114760	      0.95503481	     -0.99631674	     -0.81208502	     -4.97726583	     -2.30038275	     69.39785440	      1.21122105	    -18.38874453	      0.00000000	      0.00000000	     22.64050470	     -8.86942707	    -11.37868824	     58.70345286	      1.02456853	     18.43253799	      0.00000000	      0.00000000	    -10.70578578	     -0.38295997	     10.14179687	     89.87593216	    -19.84216636	     36.09366515	     36.82566377	     84.61709309	      0.00000000	      0.00000000	     89.89617261	    -17.93670594	     47.59228460	     42.29336123	     86.58122653	      0.00000000	      0.00000000
      3.76500000	      2.40855282	     -7.15899010	     -5.50848650	     -0.26131619	      0.95408891	     -0.99627169	     -0.77921661	     -4.92706613	     -2.29524607	     69.47059453	      1.21249061	    -18.42553219	      0.00000000	      0.00000000	     22.83124297	     -8.92034027	    -11.30854156	     58.94603631	      1.02880241	     18.60032105	      0.00000000	      0.00000000	    -10.68294367	     -0.32264744	     10.11760776	     89.87623391	    -19.78772446	     35.88648786	     36.81326975	     84.86347911	      0.00000000	      0.00000000	     89.89722165	    -17.95730493	     47.59125970	     42.34918797	     86.53853245	      0.00000000	      0.00000000
      3.77000000	      2.35614779	     -7.17959856	     -5.49299285	     -0.26135955	      0.95331051	     -0.99612148	     -0.76821245	     -4.88306608	     -2.28503786	     69.47656382	      1.21259479	    -18.52796030	      0.00000000	      0.00000000	     22.97550842	     -8.94762657	    -11.23970258	     59.12107965	      1.03185750	     18.72610973	      0.00000000	      0.00000000	    -10.64542723	     -0.30281540	     10.09037543	     89.87619041	    -19.77569196	     35.87807325	     36.85465042	     85.02382494	      0.00000000	      0.00000000	     89.89750390	    -17.95155733	     47.55756615	     42.38694541	     86.44148906	      0.00000000	      0.00000000
      3.77500000	      2.30467512	     -7.17880219	     -5.50876824	     -0.26166719	      0.95238134	     -0.99608742	     -0.69674298	     -4.86855328	     -2.21953710	     69.56721165	      1.21417689	    -18.56452333	      0.00000000	      0.00000000	     23.16486178	     -8.95812306	    -11.18960055	     59.34658044	      1.03579323	     18.83124930	      0.00000000	      0.00000000	    -10.62043886	     -0.29954440	     10.11123322	     89.87706341	    -19.79035860	     35.81335897	     36.87414249	     85.08334778	      0.00000000	      0.00000000	     89.89812489	    -17.90436936	     47.43881785	     42.40779615	     86.26172600	      0.00000000	      0.00000000
      3.78000000	      2.28686706	     -7.14972182	     -5.55699713	     -0.26177695	      0.95154031	     -0.99598130	     -0.67564800	     -4.90130305	     -2.15638470	     69.66298648	      1.21584848	    -18.46580342	      0.00000000	      0.00000000	     23.26964748	     -8.95864892	    -11.21516203	     59.53448477	      1.03907278	     18.95934127	      0.00000000	      0.00000000	    -10.61748758	     -0.31858094	     10.12814830	     89.87726790	    -19.67975462	     35.59541279	     36.80796697	     85.22088140	      0.00000000	      0.00000000	     89.89852323	    -17.95545032	     47.43274579	     42.47938826	     86.29986543	      0.00000000	      0.00000000
